<svg width="31" height="35" viewBox="0 0 31 35" fill="none" xmlns="http://www.w3.org/2000/svg">
<path d="M0.23888 26.2505C0.397072 26.5259 0.626519 26.7536 0.903111 26.9097L14.4913 34.7548L14.4918 34.7544C14.7655 34.9152 15.0773 35 15.3948 35C15.7123 35 16.024 34.9152 16.2978 34.7544L29.8865 26.9092C30.1625 26.7526 30.3917 26.5251 30.5504 26.2503C30.7091 25.9754 30.7915 25.6632 30.7891 25.3458V9.65546L30.7887 9.65504C30.791 9.33757 30.7086 9.02522 30.5498 8.75029C30.3911 8.47536 30.1618 8.24781 29.8856 8.09118L16.297 0.246007V0.245584C16.0234 0.0847857 15.7119 0 15.3946 0C15.0773 0 14.7657 0.0847857 14.4922 0.245584V0.246007L0.903956 8.09118C0.627675 8.2477 0.398241 8.4752 0.2394 8.75016C0.0805586 9.02511 -0.00191842 9.33751 0.000504749 9.65504L8.18302e-05 9.65546V25.3458C-0.00296941 25.6633 0.0793604 25.9758 0.238457 26.2505" fill="#009639"/>
<path d="M11.0419 23.4749C11.0419 23.9384 10.8578 24.3829 10.5301 24.7106C10.2024 25.0383 9.75787 25.2224 9.29439 25.2224C8.83092 25.2224 8.38644 25.0383 8.05871 24.7106C7.73099 24.3829 7.54688 23.9384 7.54688 23.4749L7.5473 23.4754L7.549 11.4794C7.549 10.5501 8.37016 9.7815 9.53319 9.7815C9.98372 9.77574 10.4301 9.86801 10.8414 10.0519C11.2527 10.2358 11.6191 10.507 11.9153 10.8466L12.4433 11.4786L19.7439 20.2153V11.5282H19.743C19.7438 11.0652 19.9283 10.6215 20.2559 10.2944C20.5835 9.96731 21.0276 9.78359 21.4905 9.78359C21.9535 9.78359 22.3976 9.96731 22.7252 10.2944C23.0528 10.6215 23.2373 11.0652 23.2381 11.5282H23.2376L23.2359 23.5233C23.2359 24.4526 22.4144 25.2212 21.2518 25.2212C20.8012 25.2271 20.3548 25.1349 19.9434 24.951C19.5321 24.7671 19.1657 24.4958 18.8697 24.1561L11.0411 14.7874V23.4754L11.0419 23.4749Z" fill="white"/>
<path d="M29.1511 31.7483H29.3744V31.251H29.551C29.6359 31.2436 29.7212 31.2578 29.7991 31.2924C29.8425 31.3259 29.8763 31.3703 29.897 31.4212C29.9177 31.472 29.9246 31.5274 29.917 31.5817V31.6837L29.922 31.7217C29.9237 31.7269 29.9248 31.7322 29.9254 31.7376C29.9265 31.7438 29.927 31.7456 29.9304 31.7483H30.1373L30.1298 31.7342C30.1216 31.7137 30.1181 31.6916 30.1198 31.6696C30.1168 31.6338 30.1168 31.6033 30.1168 31.5751V31.4809C30.1137 31.4098 30.0896 31.3412 30.0476 31.2838C30.0212 31.2493 29.988 31.2206 29.9501 31.1993C29.9123 31.178 29.8705 31.1646 29.8273 31.1599C29.8916 31.1512 29.9538 31.131 30.011 31.1003C30.052 31.0733 30.085 31.0359 30.1067 30.9919C30.1284 30.9479 30.1379 30.8989 30.1343 30.8499C30.1413 30.7824 30.1259 30.7145 30.0907 30.6565C30.0554 30.5985 30.0022 30.5537 29.9391 30.5288C29.8273 30.4929 29.71 30.4775 29.5928 30.4835H29.151L29.1511 31.7483ZM29.7861 31.0664C29.7177 31.089 29.6457 31.0985 29.5737 31.0946H29.3744V30.6341H29.5646C29.6568 30.6283 29.7489 30.6453 29.833 30.6835C29.8628 30.7034 29.8865 30.7312 29.9014 30.7638C29.9162 30.7964 29.9216 30.8326 29.917 30.8681C29.9201 30.911 29.9089 30.9537 29.8852 30.9895C29.8616 31.0254 29.8267 31.0524 29.7861 31.0664H29.7861ZM30.4346 30.3062C30.3278 30.1975 30.2 30.1118 30.059 30.0541C29.918 29.9965 29.7668 29.9682 29.6145 29.9709C29.3085 29.9709 29.0151 30.0924 28.7988 30.3087C28.5825 30.5251 28.4609 30.8185 28.4609 31.1244C28.4609 31.4304 28.5825 31.7238 28.7988 31.9401C29.0151 32.1564 29.3085 32.278 29.6145 32.278C29.8431 32.2784 30.0667 32.211 30.257 32.0842C30.4473 31.9575 30.5957 31.7772 30.6835 31.5661C30.7713 31.355 30.7945 31.1227 30.7502 30.8984C30.7059 30.6741 30.596 30.468 30.4346 30.3062V30.3062ZM30.3173 30.4206C30.4115 30.5112 30.4858 30.6204 30.5357 30.7412C30.5855 30.8619 30.6097 30.9917 30.6069 31.1224C30.6081 31.3192 30.5507 31.512 30.442 31.6761C30.3333 31.8402 30.1782 31.9683 29.9965 32.0439C29.8147 32.1196 29.6146 32.1394 29.4215 32.1008C29.2285 32.0623 29.0513 31.9671 28.9125 31.8275C28.8198 31.7352 28.7465 31.6253 28.697 31.5041C28.6475 31.383 28.6228 31.2532 28.6243 31.1224C28.6239 30.8591 28.7279 30.6064 28.9135 30.4196C29.0991 30.2329 29.3512 30.1273 29.6145 30.1261C29.7457 30.1238 29.8759 30.1488 29.9969 30.1995C30.1179 30.2502 30.227 30.3255 30.3174 30.4206" fill="#999999"/>
</svg>
