<svg width="28" height="30" viewBox="0 0 28 30" fill="none" xmlns="http://www.w3.org/2000/svg">
<g clip-path="url(#clip0)">
<path d="M27.0994 13.2016C27.0506 12.6989 26.9694 12.122 26.8069 11.4794C26.6239 10.7675 26.3679 10.077 26.043 9.41914C25.6543 8.62994 25.1772 7.88884 24.621 7.21054C24.3854 6.92226 24.1253 6.64204 23.8491 6.37011C24.2635 4.6972 23.3453 3.24688 23.3453 3.24688C21.7607 3.14796 20.7532 3.74957 20.3794 4.0215C20.3144 3.99677 20.2575 3.96376 20.1925 3.93903C19.9243 3.83193 19.648 3.72484 19.3555 3.63419C19.0657 3.542 18.7731 3.45952 18.4779 3.38688C18.1773 3.31269 17.8768 3.25505 17.5679 3.20559C17.511 3.19742 17.4623 3.18914 17.4054 3.18086C16.7147 0.93957 14.732 0 14.732 0C12.5137 1.42559 12.0992 3.41989 12.0992 3.41989C12.0992 3.41989 12.0911 3.46107 12.0749 3.53527C11.9529 3.56828 11.8311 3.60946 11.7092 3.64237C11.5386 3.69183 11.368 3.75774 11.2054 3.82366C11.0361 3.88878 10.8681 3.95747 10.7016 4.02968C10.3641 4.17953 10.0333 4.34453 9.71025 4.52419C9.39334 4.70548 9.08469 4.90322 8.7839 5.10925L8.70268 5.07624C5.63108 3.88957 2.90906 5.31527 2.90906 5.31527C2.65714 8.62806 4.136 10.7129 4.42853 11.092C4.35537 11.2981 4.29037 11.5041 4.22538 11.7101C3.99785 12.46 3.82725 13.2263 3.72165 14.0257C3.70532 14.1411 3.6891 14.2565 3.68093 14.3718C0.836976 15.7974 0 18.7064 0 18.7064C2.36461 21.4671 5.12735 21.6401 5.12735 21.6401L5.13551 21.6319C5.48487 22.2663 5.89117 22.868 6.34623 23.4366C6.53802 23.6722 6.73859 23.9004 6.94751 24.1206C6.08615 26.6258 7.06944 28.7024 7.06944 28.7024C9.70209 28.8013 11.433 27.5323 11.7986 27.2439C12.0602 27.336 12.326 27.4157 12.5949 27.4828C13.4028 27.696 14.231 27.8203 15.0651 27.8537C15.2683 27.8618 15.4796 27.8701 15.6827 27.8618H15.9753L16.1053 27.8537V27.8618C17.3485 29.6584 19.5262 29.9139 19.5262 29.9139C21.0782 28.2574 21.1675 26.6092 21.1675 26.2549V26.2302V26.1807V26.1066C21.4926 25.8759 21.8014 25.6286 22.094 25.3567C22.7115 24.7881 23.2559 24.1371 23.7109 23.4366L23.8328 23.2388C25.588 23.3377 26.8312 22.1345 26.8312 22.1345C26.5387 20.2804 25.4986 19.374 25.2792 19.2009C25.2792 19.2009 25.2711 19.1927 25.2548 19.1844C25.2386 19.1761 25.2386 19.168 25.2386 19.168C25.2305 19.1597 25.2142 19.1514 25.198 19.1432C25.2061 19.0278 25.2142 18.9206 25.2224 18.8054C25.2386 18.6075 25.2386 18.4015 25.2386 18.2038V17.94V17.8905L25.2305 17.767L25.2224 17.6021C25.2224 17.5445 25.2142 17.4951 25.2061 17.4456C25.198 17.3961 25.198 17.3385 25.1898 17.289L25.1736 17.1325L25.1492 16.9759C25.1167 16.7699 25.0842 16.572 25.0355 16.366C24.8485 15.5668 24.5398 14.8086 24.1417 14.1246C23.7411 13.4511 23.2394 12.845 22.6546 12.3282C22.0858 11.8172 21.4438 11.4052 20.7775 11.1002C20.1032 10.7954 19.4043 10.5975 18.7055 10.5069C18.3561 10.4574 18.0067 10.441 17.6573 10.4492H17.3972L17.2672 10.4575C17.2184 10.4575 17.1697 10.4657 17.1291 10.4657C16.9519 10.4818 16.7757 10.5065 16.6009 10.5399C15.9021 10.6717 15.2439 10.9272 14.667 11.2815C14.0901 11.6359 13.5863 12.0727 13.18 12.5671C12.7826 13.0508 12.4643 13.5962 12.2374 14.1823C12.0244 14.7357 11.8983 15.3197 11.8637 15.9128C11.8555 16.0529 11.8555 16.2013 11.8555 16.3414V16.4485L11.8637 16.5639C11.8717 16.6298 11.8717 16.704 11.8799 16.7699C11.9043 17.0583 11.9611 17.3385 12.0343 17.6021C12.1886 18.1378 12.4324 18.624 12.733 19.036C13.0337 19.4481 13.3994 19.786 13.7813 20.058C14.1632 20.3216 14.5775 20.5112 14.9839 20.6347C15.3902 20.7584 15.7965 20.8078 16.1784 20.8078H16.3896C16.414 20.8078 16.4384 20.8078 16.4627 20.7996C16.5033 20.7996 16.5439 20.7913 16.5846 20.7913C16.5927 20.7913 16.609 20.7913 16.6171 20.7831L16.6577 20.7748C16.682 20.7748 16.7064 20.7667 16.7308 20.7667C16.7796 20.7584 16.8202 20.7501 16.869 20.7419C16.9177 20.7337 16.9584 20.7254 16.999 20.7089C17.0883 20.6925 17.1697 20.6595 17.2509 20.6347C17.4134 20.5771 17.576 20.5111 17.714 20.437C17.8603 20.3628 17.9903 20.2721 18.1203 20.1897C18.1528 20.1649 18.1935 20.1403 18.226 20.1073C18.356 20.0002 18.3804 19.8025 18.2748 19.6706C18.1853 19.5553 18.0229 19.5223 17.8928 19.5964L17.7952 19.6459C17.6824 19.7038 17.5657 19.7534 17.4459 19.7943C17.3239 19.8354 17.194 19.8684 17.064 19.8931C16.999 19.9013 16.934 19.9096 16.8608 19.9178C16.8284 19.9178 16.7958 19.926 16.7552 19.926H16.5601C16.5195 19.926 16.4789 19.926 16.4383 19.9178H16.3896C16.3734 19.9178 16.349 19.9178 16.3328 19.9096C16.2922 19.9013 16.2596 19.9013 16.219 19.8931C15.9183 19.8519 15.6177 19.7613 15.3333 19.6294C15.033 19.4933 14.756 19.3097 14.5126 19.0855C14.2607 18.8547 14.0413 18.5828 13.8706 18.2697C13.6999 17.9566 13.5781 17.6104 13.5213 17.2478C13.4969 17.0666 13.4807 16.877 13.4887 16.6957C13.4887 16.6462 13.4969 16.5968 13.4969 16.5473V16.4814C13.4969 16.4567 13.5051 16.4319 13.5051 16.4072C13.5131 16.3084 13.5294 16.2095 13.5457 16.1106C13.6838 15.3195 14.0738 14.5448 14.6752 13.9598C14.8295 13.8114 14.992 13.6796 15.1627 13.556C15.3364 13.4314 15.5214 13.3237 15.7152 13.2345C15.9091 13.1433 16.1103 13.0689 16.3166 13.0121C16.5196 12.9544 16.7309 12.9214 16.9503 12.8968C17.056 12.8885 17.1616 12.8802 17.2754 12.8802H17.5273L17.6167 12.8885C17.8523 12.9049 18.0798 12.938 18.3073 12.9956C18.7624 13.0945 19.2093 13.2676 19.6237 13.4983C20.4526 13.9681 21.1595 14.6932 21.5901 15.5668C21.8096 16.0034 21.9639 16.4732 22.037 16.9594C22.0533 17.083 22.0696 17.2067 22.0776 17.3303L22.0858 17.4209L22.094 17.5115V17.8659C22.094 17.9235 22.0858 18.0225 22.0858 18.0801C22.0776 18.212 22.0614 18.3521 22.0452 18.484C22.029 18.6158 22.0046 18.7476 21.9802 18.8795C21.9552 19.0096 21.9254 19.1388 21.8908 19.2668C21.8243 19.5269 21.7429 19.7828 21.647 20.0332C21.449 20.5323 21.1925 21.0054 20.8831 21.4424C20.2576 22.3159 19.4043 23.0246 18.4293 23.4778C17.9416 23.7003 17.4297 23.8652 16.9016 23.9475C16.6415 23.997 16.3734 24.0217 16.1053 24.0299H15.7315H15.699C15.5551 24.0299 15.4113 24.0216 15.2683 24.0052C14.6995 23.964 14.1388 23.8569 13.5863 23.7003C13.0418 23.5438 12.5137 23.3213 12.0099 23.0575C11.0104 22.5137 10.1085 21.7719 9.40967 20.8737C9.05965 20.4279 8.75473 19.9476 8.49953 19.4399C8.2482 18.9367 8.04679 18.4095 7.89825 17.8659C7.75194 17.322 7.66256 16.7699 7.62195 16.2095L7.61378 16.1024V15.6327V15.5749V15.3689C7.62195 15.097 7.64634 14.8086 7.67889 14.5284C7.71133 14.2482 7.7601 13.9598 7.81693 13.6796C7.87387 13.3995 7.93886 13.1192 8.02008 12.839C8.17202 12.2947 8.36492 11.763 8.59708 11.2486C9.0602 10.2432 9.66159 9.34494 10.3847 8.62806C10.5635 8.44677 10.7504 8.28183 10.9454 8.1171C11.1418 7.95952 11.3451 7.81105 11.5548 7.67215C11.7579 7.53204 11.9773 7.40839 12.1968 7.29301C12.3054 7.23314 12.4166 7.17814 12.5299 7.12817C12.6435 7.07881 12.7576 7.02925 12.8712 6.97989C13.0988 6.88097 13.3344 6.7986 13.5781 6.72441C13.635 6.70796 13.7 6.6915 13.7569 6.66677C13.8138 6.65021 13.8788 6.63376 13.9356 6.61731C14.0576 6.5843 14.1795 6.5514 14.3014 6.52667C14.3583 6.51021 14.4233 6.50193 14.4882 6.48548C14.5532 6.46892 14.6102 6.46075 14.6752 6.44419C14.7402 6.43602 14.7971 6.41946 14.862 6.41129L14.9514 6.39484L15.0489 6.37828C15.1139 6.37011 15.1708 6.36183 15.2358 6.35355C15.309 6.34538 15.3739 6.3371 15.447 6.32882C15.504 6.32064 15.6014 6.31236 15.6584 6.30409C15.699 6.29591 15.7477 6.29591 15.7883 6.28763L15.8777 6.27946L15.9183 6.27118H15.9671C16.0403 6.2629 16.1053 6.2629 16.1784 6.25473L16.284 6.24645H16.3653C16.4222 6.24645 16.4872 6.23828 16.544 6.23828C16.7823 6.23004 17.0208 6.23004 17.2591 6.23828C17.7304 6.25473 18.1936 6.31247 18.6405 6.39484C19.5424 6.56796 20.3876 6.85624 21.1595 7.24355C21.9313 7.62269 22.614 8.09237 23.2153 8.60333C23.2559 8.63624 23.2885 8.66925 23.3291 8.70226C23.3615 8.73516 23.4022 8.76817 23.4347 8.80118C23.5078 8.86699 23.5728 8.9329 23.646 8.99882C23.7192 9.06484 23.7841 9.13075 23.8491 9.19667C23.9161 9.26335 23.9812 9.33205 24.0441 9.40269C24.296 9.67462 24.5316 9.94656 24.7428 10.2268C25.1355 10.7402 25.481 11.2891 25.7749 11.8666L25.8237 11.9655L25.8724 12.0644C25.9049 12.1303 25.9374 12.1962 25.9618 12.2623C25.9943 12.3282 26.0187 12.3858 26.0512 12.4517C26.0756 12.5176 26.108 12.5754 26.1324 12.6413C26.23 12.8885 26.3275 13.1274 26.4007 13.3499C26.5225 13.7126 26.6119 14.034 26.685 14.3141C26.6962 14.3691 26.7276 14.4176 26.773 14.4498C26.8183 14.482 26.874 14.4954 26.9288 14.4872C27.0507 14.4789 27.14 14.3801 27.14 14.2565C27.1482 13.9598 27.14 13.6055 27.0994 13.2016Z" fill="url(#paint0_linear)"/>
</g>
<defs>
<linearGradient id="paint0_linear" x1="13.5701" y1="36.6295" x2="13.5701" y2="9.31488" gradientUnits="userSpaceOnUse">
<stop stop-color="#FFF100"/>
<stop offset="1" stop-color="#F05A28"/>
</linearGradient>
<clipPath id="clip0">
<rect width="27.1429" height="30" fill="white"/>
</clipPath>
</defs>
</svg>
