<svg width="37" height="35" viewBox="0 0 37 35" fill="none" xmlns="http://www.w3.org/2000/svg">
<path d="M36.2729 17.4998C36.2729 19.4088 35.1038 21.1094 34.5456 22.8299C33.9662 24.6149 33.8922 26.6739 32.8109 28.1599C31.7187 29.6607 29.7762 30.3625 28.2754 31.4547C26.7894 32.536 25.5275 34.173 23.7429 34.7529C22.0205 35.312 20.0449 34.7475 18.1365 34.7475C16.228 34.7475 14.2524 35.312 12.5305 34.7529C10.7455 34.173 9.48354 32.536 7.99754 31.4547C6.49674 30.3625 4.55423 29.6607 3.46206 28.1599C2.38076 26.6744 2.30673 24.6154 1.72733 22.8299C1.16817 21.1075 0 19.4068 0 17.4998C0 15.5928 1.16916 13.8902 1.72733 12.1698C2.30673 10.3847 2.38076 8.32572 3.46206 6.83972C4.55423 5.33941 6.49674 4.63713 7.99754 3.54546C9.48354 2.46415 10.7455 0.826639 12.5305 0.247243C14.2524 -0.311918 16.228 0.252178 18.1365 0.252178C20.0449 0.252178 22.0205 -0.311918 23.7424 0.247243C25.5275 0.826639 26.7894 2.46415 28.2754 3.54546C29.7762 4.63713 31.7187 5.33941 32.8109 6.83972C33.8922 8.32572 33.9662 10.3847 34.5456 12.1698C35.1038 13.8902 36.2729 15.5914 36.2729 17.4998Z" fill="#326CE5"/>
<path fill-rule="evenodd" clip-rule="evenodd" d="M5.53791 16.0422C5.019 15.7976 4.50706 15.5563 3.47656 15.5563V15.4082C4.53939 15.4082 5.07446 15.6601 5.60208 15.9088L5.60331 15.9094C6.12216 16.154 6.63398 16.3952 7.6641 16.3952C8.69423 16.3952 9.20618 16.154 9.72515 15.9094L9.72637 15.9088C10.2541 15.6601 10.7893 15.4082 11.8521 15.4082C12.915 15.4082 13.4499 15.6601 13.9775 15.9088L13.9786 15.9093C14.4974 16.1539 15.0092 16.3952 16.0397 16.3952C17.0701 16.3952 17.5819 16.1539 18.1007 15.9093L18.1019 15.9088C18.6294 15.6601 19.1644 15.4082 20.2272 15.4082C21.2901 15.4082 21.8251 15.6601 22.3527 15.9088L22.354 15.9094C22.8728 16.154 23.3846 16.3952 24.4148 16.3952C25.4449 16.3952 25.9568 16.154 26.4758 15.9094L26.477 15.9088C27.0048 15.6601 27.54 15.4082 28.6028 15.4082C29.6656 15.4082 30.2007 15.6601 30.7284 15.9088L30.7295 15.9093C31.2484 16.1539 31.7604 16.3952 32.7908 16.3952V16.5433C31.728 16.5433 31.1929 16.2914 30.6652 16.0427L30.6641 16.0422C30.1452 15.7976 29.6332 15.5563 28.6028 15.5563C27.5723 15.5563 27.0602 15.7976 26.5412 16.0422L26.5402 16.0427C26.0124 16.2914 25.4773 16.5433 24.4148 16.5433C23.3522 16.5433 22.8172 16.2914 22.2896 16.0427L22.2886 16.0422C21.7697 15.7976 21.2577 15.5563 20.2272 15.5563C19.1968 15.5563 18.685 15.7976 18.1662 16.0422L18.165 16.0427C17.6375 16.2914 17.1025 16.5433 16.0397 16.5433C14.9769 16.5433 14.4419 16.2914 13.9143 16.0427L13.9132 16.0422C13.3944 15.7976 12.8826 15.5563 11.8521 15.5563C10.8216 15.5563 10.3096 15.7976 9.79054 16.0422L9.7895 16.0427C9.26175 16.2914 8.72669 16.5433 7.6641 16.5433C6.60152 16.5433 6.06657 16.2914 5.53895 16.0427L5.53791 16.0422Z" fill="white"/>
<path fill-rule="evenodd" clip-rule="evenodd" d="M5.52 18.0597C5.00416 17.8165 4.49992 17.5788 3.48047 17.5788V17.332C4.55384 17.332 5.09662 17.5873 5.62704 17.8373L5.62902 17.8383C6.14481 18.0814 6.64893 18.3191 7.66801 18.3191C8.68709 18.3191 9.19134 18.0814 9.70725 17.8383L9.70924 17.8373C10.2398 17.5873 10.7827 17.332 11.856 17.332C12.9294 17.332 13.4721 17.5873 14.0024 17.8373L14.0043 17.8382C14.5201 18.0814 15.0242 18.3191 16.0436 18.3191C17.063 18.3191 17.5671 18.0814 18.0828 17.8382L18.0847 17.8373C18.6151 17.5873 19.1578 17.332 20.2311 17.332C21.3045 17.332 21.8473 17.5873 22.3777 17.8373L22.3797 17.8383C22.8955 18.0814 23.3996 18.3191 24.4187 18.3191C25.4378 18.3191 25.942 18.0814 26.4579 17.8383L26.4599 17.8373C26.9904 17.5873 27.5333 17.332 28.6067 17.332C29.6801 17.332 30.2229 17.5873 30.7533 17.8373L30.7552 17.8382C31.2711 18.0814 31.7753 18.3191 32.7947 18.3191V18.5658C31.7214 18.5658 31.1786 18.3106 30.6481 18.0605L30.6462 18.0596C30.1303 17.8165 29.6261 17.5788 28.6067 17.5788C27.5872 17.5788 27.0829 17.8165 26.5669 18.0597L26.5651 18.0605C26.0346 18.3106 25.4918 18.5658 24.4187 18.5658C23.3455 18.5658 22.8029 18.3106 22.2725 18.0605L22.2707 18.0597C21.7548 17.8165 21.2506 17.5788 20.2311 17.5788C19.2117 17.5788 18.7076 17.8165 18.1919 18.0596L18.19 18.0605C17.6596 18.3106 17.117 18.5658 16.0436 18.5658C14.9702 18.5658 14.4276 18.3106 13.8972 18.0605L13.8953 18.0596C13.3795 17.8165 12.8754 17.5788 11.856 17.5788C10.8366 17.5788 10.3322 17.8165 9.81625 18.0597L9.81444 18.0605C9.28392 18.3106 8.74114 18.5658 7.66801 18.5658C6.59488 18.5658 6.05222 18.3106 5.52181 18.0605L5.52 18.0597Z" fill="white"/>
<path fill-rule="evenodd" clip-rule="evenodd" d="M5.49818 20.4736C4.98542 20.2319 4.48887 19.9978 3.48047 19.9978V19.6523C4.56439 19.6523 5.11488 19.911 5.64808 20.1624L5.65084 20.1637C6.16355 20.4054 6.65998 20.6394 7.66801 20.6394C8.67605 20.6394 9.1726 20.4054 9.68545 20.1636L9.6882 20.1624C10.2215 19.911 10.7721 19.6523 11.856 19.6523C12.94 19.6523 13.4903 19.911 14.0235 20.1624L14.0262 20.1636C14.5388 20.4053 15.0353 20.6394 16.0436 20.6394C17.0519 20.6394 17.5483 20.4053 18.061 20.1636L18.0637 20.1624C18.5968 19.911 19.1472 19.6523 20.2311 19.6523C21.315 19.6523 21.8655 19.911 22.3987 20.1624L22.4015 20.1637C22.9142 20.4054 23.4106 20.6394 24.4187 20.6394C25.4267 20.6394 25.9233 20.4054 26.4361 20.1636L26.4389 20.1624C26.9722 19.911 27.5228 19.6523 28.6067 19.6523C29.6906 19.6523 30.2411 19.911 30.7744 20.1624L30.777 20.1636C31.2898 20.4053 31.7864 20.6394 32.7947 20.6394V20.9849C31.7108 20.9849 31.1603 20.7262 30.6271 20.4748L30.6244 20.4736C30.1116 20.2319 29.615 19.9978 28.6067 19.9978C27.5983 19.9978 27.1016 20.2319 26.5887 20.4736L26.5861 20.4748C26.0528 20.7262 25.5023 20.9849 24.4187 20.9849C23.335 20.9849 22.7846 20.7262 22.2514 20.4748L22.2488 20.4736C21.7361 20.2319 21.2395 19.9978 20.2311 19.9978C19.2228 19.9978 18.7264 20.2319 18.2137 20.4736L18.211 20.4748C17.6779 20.7262 17.1275 20.9849 16.0436 20.9849C14.9597 20.9849 14.4093 20.7262 13.8762 20.4748L13.8735 20.4736C13.3608 20.2319 12.8644 19.9978 11.856 19.9978C10.8476 19.9978 10.351 20.2319 9.83806 20.4736L9.83548 20.4748C9.30218 20.7262 8.75169 20.9849 7.66801 20.9849C6.58433 20.9849 6.03396 20.7262 5.50077 20.4748L5.49818 20.4736Z" fill="white"/>
<path d="M18.1363 2.09375C9.62795 2.09375 2.73047 8.99123 2.73047 17.4996C2.73047 26.0079 9.62795 32.9054 18.1363 32.9054C26.6446 32.9054 33.5421 26.0099 33.5421 17.4996C33.5421 8.98925 26.6446 2.09375 18.1363 2.09375ZM18.1323 31.565C10.3623 31.565 4.07236 25.2721 4.07088 17.502C4.07088 9.72361 10.3771 3.42182 18.1526 3.43663C25.928 3.45143 32.2086 9.74385 32.2017 17.5129C32.1948 25.2819 25.9024 31.5674 18.1323 31.565Z" fill="white"/>
<path d="M11.0293 24.4806C10.9799 24.3104 10.7455 24.1411 10.5634 24.1638C10.3048 24.1969 10.0472 24.2398 9.73627 24.2862C9.85076 23.9827 9.9475 23.7236 10.0462 23.4645C10.1316 23.2394 9.9475 23.1304 9.83201 23.0099C9.71653 22.8895 9.62621 23.0415 9.54774 23.1037C9.12973 23.4349 8.72455 23.7823 8.30258 24.108C8.10221 24.2625 8.25323 24.3523 8.33417 24.4634C8.41511 24.5744 8.49752 24.6993 8.66286 24.5537C8.85335 24.3864 9.05471 24.2309 9.25508 24.0685C9.26249 24.0873 9.26939 24.0962 9.26742 24.1021C9.22794 24.2166 9.185 24.3301 9.14651 24.4451C9.06606 24.6879 9.22152 24.8651 9.47667 24.8251C9.58278 24.8083 9.69086 24.7758 9.81721 24.83C9.6119 24.9983 9.43374 25.1563 9.24324 25.2969C9.08679 25.4124 9.16181 25.5067 9.25607 25.593C9.35033 25.6794 9.38981 25.9044 9.59167 25.7411C10.0454 25.3752 10.4976 25.0082 10.9484 24.64C10.9948 24.602 11.0545 24.5665 11.0293 24.4806Z" fill="white"/>
<path d="M19.2786 7.87909C19.6014 8.01234 19.7292 7.95115 19.7959 7.61753C19.8107 7.54498 19.824 7.47292 19.8417 7.40136C19.8561 7.34313 19.8417 7.24492 19.9311 7.25725C20.0204 7.26959 20.1349 7.25133 20.1675 7.38458C20.2 7.51783 20.2405 7.63579 20.277 7.76114C20.3797 8.10661 20.4503 8.1604 20.8021 8.17866C20.9344 8.18557 20.964 8.14066 20.929 8.02271C20.8737 7.83468 20.8258 7.64418 20.7671 7.45713C20.74 7.37175 20.7178 7.32141 20.8347 7.27255C21.12 7.15213 21.197 6.89353 21.2172 6.62752C21.2172 6.29883 21.0198 6.05849 20.6506 5.95978C20.3506 5.87983 20.0426 5.82999 19.7386 5.76237C19.6251 5.7377 19.5683 5.78359 19.5471 5.89217C19.4306 6.4844 19.3122 7.08057 19.1972 7.67576C19.1819 7.75621 19.1706 7.83467 19.2786 7.87909ZM20.1443 6.34917C20.3935 6.324 20.6339 6.46811 20.6314 6.61567C20.6289 6.76324 20.5426 6.8348 20.3752 6.83924C20.2721 6.75238 20.0327 6.89353 19.9977 6.67292C19.9829 6.57965 19.9483 6.37138 20.1443 6.35115V6.34917Z" fill="white"/>
<path d="M16.0268 27.1856C15.8866 27.1397 15.7435 27.082 15.6941 27.3149C15.6404 27.571 15.5584 27.8208 15.4735 28.1292C15.3437 27.7433 15.2233 27.4126 15.1231 27.076C15.0575 26.8559 14.869 26.8579 14.7101 26.8293C14.5349 26.8006 14.5664 26.9773 14.5388 27.076C14.3908 27.5873 14.2634 28.1055 14.1045 28.6138C14.0265 28.8646 14.2116 28.8419 14.335 28.8848C14.4663 28.9297 14.6049 28.9835 14.6548 28.7663C14.7145 28.5063 14.794 28.2506 14.8744 27.9599C14.9075 28.0359 14.9302 28.0794 14.9455 28.1248C15.0442 28.4209 15.1473 28.7135 15.2416 29.0101C15.3092 29.2293 15.5066 29.2159 15.664 29.2377C15.8215 29.2594 15.7889 29.0896 15.8151 29.0003C15.9631 28.488 16.088 27.9693 16.2494 27.462C16.3229 27.2162 16.1526 27.227 16.0268 27.1856Z" fill="white"/>
<path d="M27.9145 24.0632C27.7526 24.04 27.5932 23.9921 27.4308 23.9768C27.2971 23.9645 27.2635 23.9181 27.2591 23.7794C27.2482 23.434 26.9358 23.1507 26.5958 23.1467C26.3623 23.1403 26.1837 23.2573 26.0406 23.4211C25.8624 23.625 25.7094 23.8505 25.5307 24.0538C25.4093 24.1925 25.4246 24.2784 25.5692 24.3875C26.0016 24.7142 26.4304 25.0463 26.8494 25.3893C26.9975 25.5077 27.072 25.4954 27.1811 25.3469C27.3785 25.0779 27.3864 25.0843 27.1204 24.878C27.0621 24.8326 27.0009 24.7902 26.9476 24.7393C26.9067 24.7003 26.805 24.6846 26.8623 24.5957C26.9087 24.5242 26.9486 24.4304 27.0676 24.4546C27.1865 24.4788 27.3143 24.4822 27.4293 24.5242C27.6943 24.6229 27.8592 24.5197 28.0033 24.3001C28.0985 24.1575 28.1035 24.0899 27.9145 24.0632ZM26.4339 24.3312C26.3969 24.3342 26.1314 24.1061 26.1338 24.0731C26.1402 23.9862 26.4438 23.6955 26.5286 23.6955C26.6427 23.7182 26.7261 23.775 26.7354 23.9003C26.7409 23.9768 26.4902 24.3263 26.4339 24.3312Z" fill="white"/>
<path d="M15.6458 7.92719C15.6631 8.0259 15.6952 8.10486 15.8181 8.08561C16.2622 8.00862 16.7094 7.942 17.1506 7.8502C17.3835 7.80085 17.2231 7.62516 17.2256 7.50474C17.2281 7.37593 17.158 7.33694 17.0316 7.36161C16.7903 7.4085 16.5455 7.44058 16.3042 7.48845C16.1788 7.51313 16.1458 7.45588 16.1339 7.34878C16.1235 7.25353 16.1097 7.1795 16.2474 7.16421C16.4512 7.14249 16.6506 7.08475 16.8545 7.06303C17.0751 7.03934 17.0346 6.90066 17.0109 6.7605C16.9872 6.62034 16.9576 6.50535 16.7641 6.55865C16.583 6.608 16.391 6.6159 16.2084 6.6618C16.0801 6.69437 16.0174 6.68647 15.9908 6.53644C15.9617 6.37457 16.0515 6.36124 16.166 6.34397C16.3688 6.31386 16.5707 6.27488 16.7735 6.24527C16.9033 6.22552 17.003 6.1895 16.9507 6.02614C16.9087 5.89486 16.9685 5.68758 16.6975 5.74385C16.3121 5.82429 15.9237 5.8919 15.5338 5.94125C15.3472 5.96494 15.3216 6.04835 15.3492 6.20332C15.4494 6.77926 15.5476 7.3547 15.6458 7.92719Z" fill="white"/>
<path d="M22.2298 27.4189C22.0859 27.4772 21.9389 27.5278 21.7896 27.5704C21.6657 27.6099 21.5764 27.6603 21.6504 27.8172C21.7091 27.9386 21.6933 28.1405 21.9278 28.0467C21.9707 28.0294 22.0166 27.989 22.0586 28.0413C22.1005 28.0936 22.0729 28.1558 22.0521 28.2051C21.9919 28.3468 21.8656 28.4075 21.7239 28.4321C21.5823 28.4568 21.4653 28.3892 21.3948 28.2658C21.2958 28.0951 21.2289 27.9078 21.1974 27.7131C21.1515 27.4253 21.4254 27.1737 21.6864 27.2995C21.9016 27.4031 22.0635 27.3202 22.2461 27.2669C22.371 27.2304 22.3714 27.1559 22.2994 27.0651C22.1326 26.8548 21.9046 26.7882 21.646 26.7774C21.3738 26.7764 21.1106 26.8747 20.9057 27.0537C20.6589 27.2748 20.5602 27.5551 20.6589 27.8754C20.7838 28.2944 20.8563 28.7638 21.3775 28.902C21.7772 29.0071 22.1296 28.8832 22.4139 28.5999C22.7213 28.292 22.6468 27.9332 22.5126 27.5675C22.4539 27.4115 22.3966 27.3454 22.2298 27.4189Z" fill="white"/>
<path d="M25.2946 26.4857C25.114 26.6268 24.9176 26.7477 24.7365 26.8889C24.6378 26.9659 24.5884 26.9417 24.5247 26.8489C24.4611 26.7561 24.4413 26.7008 24.5474 26.6313C24.7118 26.5232 24.8692 26.4047 25.0291 26.2902C25.0814 26.2527 25.1446 26.2221 25.1387 26.1313C25.0967 26.0191 25.0252 25.9202 24.9319 25.8451C24.8401 25.7804 24.769 25.8791 24.6975 25.9285C24.5494 26.0311 24.3944 26.1259 24.2563 26.2414C24.1413 26.3371 24.1082 26.2498 24.0514 26.1817C23.9833 26.1022 23.9823 26.0528 24.0776 25.9907C24.2627 25.8697 24.4339 25.7276 24.6205 25.6102C24.7735 25.5144 24.7409 25.4216 24.6511 25.3111C24.5716 25.2124 24.5233 25.0643 24.3476 25.1976C24.0258 25.4374 23.6951 25.6659 23.3659 25.8969C23.2623 25.9694 23.2579 26.0415 23.3304 26.1437C23.6709 26.616 24.007 27.0912 24.3441 27.5665C24.4053 27.6524 24.465 27.6864 24.5662 27.6129C24.9038 27.3661 25.2441 27.1235 25.5873 26.8849C25.7487 26.7729 25.651 26.6796 25.5819 26.5784C25.5128 26.4773 25.4471 26.3657 25.2946 26.4857Z" fill="white"/>
<path d="M12.5472 25.6857C12.4781 25.6363 12.4051 25.6595 12.3429 25.7079C11.8435 26.0961 11.3445 26.485 10.8461 26.8746C10.7804 26.9239 10.7316 26.9964 10.8263 27.0493C11.001 27.148 11.1609 27.3947 11.3934 27.1341C11.4047 27.1169 11.4223 27.1049 11.4424 27.1005C11.4626 27.0962 11.4836 27.0999 11.501 27.1109C11.6865 27.2324 11.8736 27.3513 12.0587 27.4727C12.108 27.5063 12.0917 27.5586 12.0858 27.6069C12.0596 27.8187 12.2062 28.057 12.417 28.0684C12.6371 28.0797 12.5334 27.8473 12.6025 27.7382C12.6107 27.7238 12.6163 27.7081 12.6193 27.6918C12.7476 27.1662 12.8759 26.6401 13.0141 26.0706C12.9588 25.8574 12.7145 25.813 12.5472 25.6857ZM12.2314 27.0043C11.8459 26.7778 11.8459 26.7778 12.1588 26.5281C12.222 26.4787 12.2872 26.4294 12.3799 26.3583C12.3564 26.5788 12.3065 26.7957 12.2314 27.0043Z" fill="white"/>
<path d="M11.9081 9.05141C12.1548 9.39392 12.5339 9.49558 12.9356 9.34753C13.3531 9.19651 13.6759 8.78886 13.6591 8.41625C13.6503 8.3269 13.6298 8.23911 13.5979 8.15518C13.5934 8.13075 13.5804 8.10872 13.5611 8.09306C13.5418 8.07741 13.5176 8.06916 13.4928 8.0698C13.3497 8.0698 13.0866 8.32594 13.0846 8.47942C13.0822 8.68621 12.9499 8.78985 12.7846 8.85598C12.6281 8.91816 12.4885 8.85598 12.3962 8.72618C12.2861 8.57367 12.1881 8.41279 12.103 8.245C12.0339 8.10336 12.0468 7.94888 12.1756 7.83883C12.3044 7.72877 12.4638 7.65425 12.6469 7.75444C12.7752 7.82501 13.1212 7.70508 13.1947 7.58022C13.244 7.50027 13.1809 7.45536 13.1409 7.41094C13.0744 7.33574 12.9922 7.27608 12.9001 7.23616C12.808 7.19625 12.7082 7.17707 12.6079 7.17997C11.9476 7.18244 11.4328 7.69077 11.5024 8.24648C11.5419 8.55937 11.7358 8.80613 11.9081 9.05141Z" fill="white"/>
<path d="M18.9194 27.7936C18.7521 27.3583 18.6371 27.3 18.1894 27.3987C18.1529 27.4026 18.1183 27.4169 18.0897 27.4399C18.0611 27.4629 18.0397 27.4937 18.0281 27.5285C17.8405 28.1287 17.6536 28.7298 17.4674 29.3319C17.4511 29.3847 17.4274 29.4469 17.4906 29.4883C17.6253 29.5771 17.9792 29.4528 18.0399 29.2963C18.0651 29.2312 18.0656 29.1517 18.1736 29.1537C18.3711 29.1576 18.5685 29.1537 18.7659 29.1443C18.836 29.1414 18.8794 29.168 18.8917 29.2312C18.9297 29.4286 19.0482 29.4868 19.2115 29.4444C19.5456 29.436 19.5471 29.435 19.4376 29.1483C19.2652 28.6955 19.0924 28.244 18.9194 27.7936ZM18.3982 28.6853C18.2501 28.6853 18.2284 28.6439 18.2728 28.518C18.3266 28.3641 18.3716 28.2071 18.4342 28.0068C18.4999 28.1746 18.5482 28.2955 18.5941 28.4169C18.6968 28.6918 18.6943 28.6824 18.3982 28.6853Z" fill="white"/>
<path d="M23.2539 9.31324C23.3694 9.37641 23.4795 9.5447 23.6127 9.32212C23.7889 9.02601 23.9799 8.74026 24.1635 8.44957C24.3846 8.10016 24.3905 8.08979 24.7459 8.31336C24.9349 8.43279 24.9847 8.30398 25.0642 8.18899C25.1491 8.06561 25.1826 7.97135 25.0148 7.87264C24.62 7.6374 24.2326 7.39195 23.8526 7.13631C23.6912 7.02872 23.6112 7.05734 23.5071 7.21724C23.3916 7.39343 23.4153 7.4872 23.594 7.58196C23.6976 7.63674 23.8136 7.68708 23.8852 7.78973C23.8486 7.84846 23.819 7.89781 23.7864 7.94618C23.5629 8.29954 23.3457 8.65685 23.1143 9.00478C22.9899 9.19627 23.1335 9.2471 23.2539 9.31324Z" fill="white"/>
<path d="M23.7221 20.0593C23.5953 19.5391 23.4699 19.0268 23.3431 18.5086C23.3366 18.4816 23.3231 18.4567 23.3039 18.4366C23.2847 18.4164 23.2606 18.4017 23.2339 18.3939C23.2072 18.3861 23.1789 18.3854 23.1519 18.3921C23.1249 18.3987 23.1001 18.4123 23.08 18.4316L21.8601 19.5993C21.841 19.6176 21.8271 19.6407 21.8198 19.6661C21.8124 19.6915 21.8118 19.7183 21.8181 19.744C21.8244 19.7697 21.8374 19.7933 21.8556 19.8124C21.8739 19.8315 21.8969 19.8455 21.9222 19.853C21.9676 19.8658 22.0121 19.8781 22.0575 19.8875C22.1562 19.9087 22.1463 19.9418 22.1004 20.0114C21.8447 20.4008 21.5081 20.7304 21.1134 20.9777L21.1035 20.9836C20.7632 21.1454 20.4032 21.2615 20.0325 21.3291C19.6493 21.4026 19.2612 21.4475 18.8713 21.4633C18.859 21.4637 18.8467 21.4616 18.8353 21.4572C18.8238 21.4527 18.8134 21.4459 18.8046 21.4373C18.7958 21.4287 18.7889 21.4183 18.7843 21.4069C18.7796 21.3956 18.7773 21.3833 18.7775 21.371V15.9235C18.7775 15.9165 18.7789 15.9096 18.7816 15.9031C18.7842 15.8967 18.7882 15.8908 18.7931 15.8858C18.7981 15.8809 18.8039 15.877 18.8104 15.8743C18.8169 15.8716 18.8238 15.8702 18.8308 15.8702C18.8802 15.8702 18.9404 15.8801 19.085 15.8786C19.3692 15.8757 19.6654 15.8757 19.9506 15.8589C20.0434 15.8535 20.0952 15.8564 20.1544 15.9008C20.2747 15.9959 20.4264 16.0421 20.5792 16.0303C20.7321 16.0185 20.8748 15.9495 20.9791 15.8372C21.0821 15.7244 21.1396 15.5774 21.1407 15.4246C21.1417 15.2719 21.086 15.1242 20.9845 15.01C20.8826 14.8957 20.7412 14.8241 20.5887 14.8097C20.4363 14.7952 20.2839 14.8389 20.1623 14.9321C20.1282 14.9638 20.084 14.9826 20.0375 14.9854C19.64 14.9834 19.2429 14.9834 18.8461 14.9854C18.8217 14.9885 18.7971 14.9819 18.7775 14.9671V14.3443C18.7772 14.323 18.7846 14.3023 18.7982 14.286C18.8264 14.2567 18.8599 14.2331 18.8969 14.2164C19.5385 13.8907 19.8712 13.3557 19.8716 12.6436C19.8716 11.5169 18.7726 10.6971 17.6858 10.9923C16.8241 11.2262 16.2645 12.082 16.4269 12.955C16.5463 13.5966 16.9238 14.0457 17.5378 14.2836C17.5608 14.2919 17.5828 14.3028 17.6034 14.3161C17.6146 14.3246 17.6235 14.3356 17.6296 14.3482C17.6357 14.3608 17.6387 14.3747 17.6385 14.3887V14.898C17.6385 14.9096 17.6362 14.9211 17.6317 14.9318C17.6272 14.9426 17.6206 14.9523 17.6124 14.9605C17.6041 14.9686 17.5943 14.9751 17.5835 14.9794C17.5728 14.9838 17.5612 14.986 17.5496 14.9858C17.1227 14.9809 16.6953 14.9829 16.2665 14.9858C16.2075 14.9856 16.1502 14.9662 16.1031 14.9306C15.9812 14.838 15.8287 14.7952 15.6765 14.8108C15.5242 14.8264 15.3835 14.8992 15.2829 15.0145C15.1819 15.1278 15.1268 15.2746 15.1283 15.4264C15.1297 15.5781 15.1877 15.7239 15.2908 15.8353C15.3939 15.9466 15.5348 16.0156 15.6859 16.0287C15.8371 16.0418 15.9878 15.9982 16.1085 15.9063C16.1549 15.8699 16.2125 15.8511 16.2714 15.853C16.6855 15.853 17.1 15.8589 17.5141 15.853C17.5514 15.8475 17.5894 15.8555 17.6212 15.8757C17.6262 15.8805 17.6302 15.8863 17.6329 15.8928C17.6355 15.8992 17.6367 15.9062 17.6365 15.9132V21.3325C17.6365 21.3451 17.6338 21.3576 17.6287 21.3691C17.6237 21.3807 17.6163 21.391 17.607 21.3995C17.5977 21.4081 17.5868 21.4146 17.5749 21.4187C17.563 21.4228 17.5503 21.4244 17.5378 21.4234C17.0349 21.3809 16.5361 21.2983 16.0464 21.1766C15.7459 21.1041 15.4536 21.0015 15.1738 20.8701C15.1689 20.868 15.1643 20.8653 15.16 20.8622C14.7653 20.5852 14.4361 20.225 14.1956 19.8071C14.1889 19.7973 14.1848 19.786 14.1838 19.7741C14.1827 19.7623 14.1848 19.7504 14.1898 19.7396C14.1948 19.7289 14.2025 19.7196 14.2122 19.7127C14.2219 19.7058 14.2332 19.7016 14.245 19.7005L14.3758 19.6738C14.4017 19.668 14.4257 19.6554 14.4453 19.6374C14.4649 19.6194 14.4794 19.5966 14.4874 19.5712C14.4954 19.5458 14.4966 19.5188 14.4909 19.4928C14.4851 19.4668 14.4727 19.4428 14.4547 19.4231L13.3068 18.172C13.2893 18.1522 13.2668 18.1373 13.2416 18.1291C13.2164 18.1209 13.1895 18.1196 13.1636 18.1254C13.1377 18.1311 13.1139 18.1437 13.0946 18.1618C13.0752 18.1799 13.0611 18.2029 13.0536 18.2283C12.8839 18.7657 12.7185 19.2908 12.5507 19.8234C12.5419 19.8511 12.5406 19.8808 12.5469 19.9092C12.5532 19.9377 12.5669 19.9639 12.5867 19.9854C12.6064 20.0068 12.6315 20.0227 12.6593 20.0313C12.6871 20.04 12.7168 20.0411 12.7452 20.0346L12.834 20.0143C12.8886 20.0019 12.9459 20.0079 12.9967 20.0315C13.0475 20.055 13.0891 20.0949 13.1148 20.1446C13.7752 21.4278 14.7681 22.3561 16.0819 22.9429C16.5952 23.1724 16.7985 23.239 17.2417 23.3066C17.2604 23.3095 17.2777 23.3183 17.291 23.3318L17.9657 24.0005C18.0109 24.0446 18.0716 24.0692 18.1347 24.0692C18.1978 24.0692 18.2585 24.0446 18.3037 24.0005L18.9591 23.359C18.9741 23.3444 18.9936 23.3354 19.0144 23.3333C19.6708 23.2716 19.9634 23.1092 20.6697 22.786C21.7628 22.286 22.6309 21.416 23.1896 20.3519C23.239 20.2572 23.2824 20.2458 23.3663 20.2739C23.3984 20.2848 23.4309 20.2952 23.465 20.305C23.4996 20.3158 23.5366 20.3171 23.5719 20.3089C23.6072 20.3006 23.6397 20.283 23.6659 20.2579C23.6922 20.2328 23.7112 20.2012 23.7211 20.1662C23.731 20.1313 23.7313 20.0944 23.7221 20.0593ZM18.091 13.5531C17.9756 13.5491 17.8621 13.5222 17.7571 13.474C17.6521 13.4259 17.5577 13.3574 17.4794 13.2726C17.401 13.1877 17.3402 13.0882 17.3005 12.9797C17.2608 12.8713 17.243 12.756 17.2481 12.6406C17.2718 12.1244 17.7011 11.7434 18.1858 11.7804C18.6961 11.8199 19.0475 12.23 19.0218 12.7028C18.9942 13.2171 18.5727 13.5892 18.091 13.5531Z" fill="white"/>
</svg>
