<svg width="248" height="65" viewBox="0 0 248 65" fill="none" xmlns="http://www.w3.org/2000/svg">
<path d="M130.481 34.2546C130.481 37.6082 128.427 40.5959 127.446 43.6182C126.428 46.7542 126.298 50.3713 124.399 52.9818C122.48 55.6184 119.067 56.8513 116.431 58.7699C113.82 60.6695 111.603 63.5454 108.468 64.5641C105.442 65.5464 101.972 64.5545 98.6192 64.5545C95.2665 64.5545 91.7959 65.5464 88.7709 64.5641C85.635 63.5454 83.4181 60.6695 80.8075 58.7699C78.171 56.8513 74.7585 55.6184 72.8398 52.9818C70.9402 50.3722 70.8102 46.755 69.7923 43.6182C68.81 40.5924 66.7578 37.6047 66.7578 34.2546C66.7578 30.9046 68.8117 27.9134 69.7923 24.891C70.8102 21.7551 70.9402 18.138 72.8398 15.5274C74.7585 12.8918 78.171 11.658 80.8075 9.74022C83.4181 7.84063 85.635 4.96392 88.7709 3.94606C91.7959 2.96375 95.2665 3.95473 98.6192 3.95473C101.972 3.95473 105.442 2.96375 108.467 3.94606C111.603 4.96392 113.82 7.84063 116.431 9.74022C119.067 11.658 122.48 12.8918 124.399 15.5274C126.298 18.138 126.428 21.7551 127.446 24.891C128.427 27.9134 130.481 30.902 130.481 34.2546Z" fill="#326CE5"/>
<path fill-rule="evenodd" clip-rule="evenodd" d="M76.4885 31.6919C75.5769 31.2622 74.6775 30.8382 72.8672 30.8382V30.5781C74.7343 30.5781 75.6743 31.0206 76.6012 31.4575L76.6034 31.4586C77.5149 31.8882 78.414 32.3121 80.2237 32.3121C82.0334 32.3121 82.9327 31.8882 83.8444 31.4585L83.8466 31.4575C84.7737 31.0206 85.7139 30.5781 87.581 30.5781C89.4482 30.5781 90.3879 31.0206 91.3147 31.4575L91.3167 31.4585C92.2282 31.8882 93.1273 32.3121 94.9375 32.3121C96.7478 32.3121 97.6469 31.8882 98.5583 31.4585L98.5603 31.4575C99.4871 31.0206 100.427 30.5781 102.294 30.5781C104.161 30.5781 105.101 31.0206 106.028 31.4575L106.03 31.4586C106.942 31.8882 107.841 32.3121 109.651 32.3121C111.46 32.3121 112.36 31.8882 113.271 31.4585L113.273 31.4575C114.201 31.0206 115.141 30.5781 117.008 30.5781C118.875 30.5781 119.815 31.0206 120.742 31.4575L120.744 31.4585C121.656 31.8882 122.555 32.3121 124.365 32.3121V32.5722C122.498 32.5722 121.558 32.1298 120.631 31.6928L120.629 31.6919C119.717 31.2622 118.818 30.8382 117.008 30.8382C115.198 30.8382 114.298 31.2622 113.386 31.6919L113.384 31.6928C112.457 32.1298 111.517 32.5722 109.651 32.5722C107.784 32.5722 106.844 32.1298 105.917 31.6928L105.915 31.6919C105.004 31.2622 104.104 30.8382 102.294 30.8382C100.484 30.8382 99.5847 31.2622 98.6732 31.6919L98.6712 31.6928C97.7444 32.1298 96.8047 32.5722 94.9375 32.5722C93.0704 32.5722 92.1306 32.1298 91.2038 31.6928L91.2018 31.6919C90.2904 31.2622 89.3913 30.8382 87.581 30.8382C85.7707 30.8382 84.8711 31.2622 83.9593 31.6919L83.9575 31.6928C83.0304 32.1298 82.0904 32.5722 80.2237 32.5722C78.357 32.5722 77.4172 32.1298 76.4903 31.6928L76.4885 31.6919Z" fill="white"/>
<path fill-rule="evenodd" clip-rule="evenodd" d="M76.4541 35.2353C75.5479 34.8081 74.662 34.3905 72.8711 34.3905V33.957C74.7568 33.957 75.7103 34.4054 76.6421 34.8447L76.6456 34.8464C77.5517 35.2735 78.4373 35.691 80.2276 35.691C82.0179 35.691 82.9037 35.2735 83.81 34.8464L83.8135 34.8447C84.7456 34.4054 85.6993 33.957 87.5849 33.957C89.4706 33.957 90.4239 34.4055 91.3556 34.8447L91.359 34.8463C92.265 35.2735 93.1506 35.691 94.9414 35.691C96.7323 35.691 97.6179 35.2735 98.5239 34.8463L98.5273 34.8447C99.459 34.4055 100.412 33.957 102.298 33.957C104.184 33.957 105.137 34.4054 106.069 34.8447L106.072 34.8464C106.979 35.2735 107.864 35.691 109.654 35.691C111.445 35.691 112.331 35.2735 113.237 34.8464L113.24 34.8447C114.172 34.4054 115.126 33.957 117.012 33.957C118.897 33.957 119.851 34.4055 120.783 34.8447L120.786 34.8463C121.692 35.2735 122.578 35.691 124.369 35.691V36.1245C122.483 36.1245 121.53 35.6761 120.598 35.2368L120.595 35.2353C119.688 34.8081 118.803 34.3905 117.012 34.3905C115.221 34.3905 114.335 34.8081 113.428 35.2353L113.425 35.2368C112.493 35.6761 111.54 36.1245 109.654 36.1245C107.769 36.1245 106.816 35.6761 105.884 35.2368L105.881 35.2353C104.975 34.8081 104.089 34.3905 102.298 34.3905C100.507 34.3905 99.6215 34.8081 98.7155 35.2353L98.7121 35.2368C97.7804 35.6761 96.8271 36.1245 94.9414 36.1245C93.0558 36.1245 92.1025 35.6761 91.1708 35.2368L91.1674 35.2353C90.2614 34.8081 89.3758 34.3905 87.5849 34.3905C85.794 34.3905 84.9079 34.8081 84.0015 35.2353L83.9983 35.2368C83.0663 35.6761 82.1128 36.1245 80.2276 36.1245C78.3423 36.1245 77.389 35.6761 76.4572 35.2368L76.4541 35.2353Z" fill="white"/>
<path fill-rule="evenodd" clip-rule="evenodd" d="M76.4157 39.4779C75.5149 39.0533 74.6426 38.6421 72.8711 38.6421V38.0352C74.7753 38.0352 75.7423 38.4895 76.6791 38.9311L76.6839 38.9334C77.5846 39.358 78.4567 39.7692 80.2276 39.7692C81.9985 39.7692 82.8708 39.358 83.7717 38.9334L83.7766 38.9311C84.7135 38.4895 85.6808 38.0352 87.5849 38.0352C89.4891 38.0352 90.456 38.4895 91.3926 38.9311L91.3973 38.9334C92.2979 39.358 93.17 39.7692 94.9414 39.7692C96.7128 39.7692 97.5849 39.358 98.4856 38.9334L98.4903 38.9311C99.4269 38.4895 100.394 38.0352 102.298 38.0352C104.202 38.0352 105.169 38.4895 106.106 38.9311L106.111 38.9334C107.011 39.358 107.884 39.7692 109.654 39.7692C111.425 39.7692 112.298 39.358 113.199 38.9334L113.203 38.9311C114.14 38.4895 115.108 38.0352 117.012 38.0352C118.916 38.0352 119.883 38.4895 120.82 38.9311L120.825 38.9333C121.725 39.358 122.598 39.7692 124.369 39.7692V40.3761C122.465 40.3761 121.498 39.9217 120.561 39.4801L120.556 39.4779C119.656 39.0532 118.783 38.6421 117.012 38.6421C115.24 38.6421 114.368 39.0533 113.467 39.478L113.462 39.4801C112.525 39.9217 111.558 40.3761 109.654 40.3761C107.751 40.3761 106.784 39.9217 105.847 39.4801L105.843 39.4779C104.942 39.0533 104.069 38.6421 102.298 38.6421C100.527 38.6421 99.6544 39.0532 98.7538 39.4779L98.7491 39.4801C97.8125 39.9217 96.8456 40.3761 94.9414 40.3761C93.0372 40.3761 92.0704 39.9217 91.1338 39.4801L91.1291 39.4779C90.2284 39.0532 89.3563 38.6421 87.5849 38.6421C85.8134 38.6421 84.9409 39.0533 84.0398 39.478L84.0353 39.4801C83.0984 39.9217 82.1313 40.3761 80.2276 40.3761C78.3238 40.3761 77.357 39.9217 76.4203 39.4801L76.4157 39.4779Z" fill="white"/>
<path d="M98.615 7.19141C83.668 7.19141 71.5508 19.3086 71.5508 34.2557C71.5508 49.2027 83.668 61.3199 98.615 61.3199C113.562 61.3199 125.679 49.2062 125.679 34.2557C125.679 19.3051 113.562 7.19141 98.615 7.19141ZM98.6081 58.9652C84.9581 58.9652 73.9082 47.91 73.9056 34.26C73.9056 20.5952 84.9841 9.5245 98.6437 9.55051C112.303 9.57652 123.337 20.6308 123.325 34.2791C123.312 47.9274 112.258 58.9695 98.6081 58.9652Z" fill="white"/>
<path d="M86.129 46.5183C86.0423 46.2192 85.6304 45.9218 85.3105 45.9617C84.8562 46.0198 84.4036 46.0952 83.8574 46.1767C84.0586 45.6435 84.2285 45.1884 84.4019 44.7332C84.5519 44.3378 84.2285 44.1462 84.0256 43.9347C83.8227 43.7231 83.6641 43.9902 83.5262 44.0994C82.7919 44.6812 82.0801 45.2915 81.3388 45.8638C80.9868 46.1351 81.2521 46.2929 81.3943 46.488C81.5365 46.6831 81.6813 46.9024 81.9717 46.6467C82.3064 46.3527 82.6601 46.0796 83.0121 45.7944C83.0251 45.8273 83.0372 45.843 83.0338 45.8534C82.9644 46.0545 82.889 46.2539 82.8214 46.4559C82.68 46.8825 82.9531 47.1937 83.4014 47.1235C83.5878 47.094 83.7777 47.0368 83.9996 47.1322C83.6389 47.4278 83.326 47.7053 82.9913 47.9524C82.7164 48.1552 82.8482 48.3208 83.0138 48.4726C83.1794 48.6243 83.2488 49.0196 83.6034 48.7327C84.4005 48.0899 85.1949 47.4452 85.9868 46.7984C86.0683 46.7316 86.1732 46.6692 86.129 46.5183Z" fill="white"/>
<path d="M100.621 17.355C101.188 17.5891 101.413 17.4816 101.53 16.8955C101.556 16.768 101.579 16.6415 101.61 16.5157C101.635 16.4134 101.61 16.2409 101.767 16.2626C101.924 16.2843 102.125 16.2522 102.183 16.4863C102.24 16.7204 102.311 16.9276 102.375 17.1478C102.555 17.7547 102.679 17.8492 103.297 17.8813C103.53 17.8934 103.582 17.8145 103.52 17.6073C103.423 17.277 103.339 16.9423 103.236 16.6137C103.188 16.4637 103.149 16.3753 103.355 16.2895C103.856 16.0779 103.991 15.6236 104.027 15.1563C104.027 14.5789 103.68 14.1566 103.031 13.9832C102.504 13.8428 101.963 13.7552 101.429 13.6364C101.23 13.5931 101.13 13.6737 101.093 13.8645C100.888 14.9049 100.68 15.9522 100.478 16.9978C100.451 17.1391 100.431 17.277 100.621 17.355ZM102.142 14.6673C102.58 14.6231 103.002 14.8763 102.997 15.1355C102.993 15.3947 102.841 15.5204 102.548 15.5282C102.366 15.3756 101.946 15.6236 101.884 15.2361C101.858 15.0722 101.798 14.7063 102.142 14.6708V14.6673Z" fill="white"/>
<path d="M94.9096 51.2681C94.6634 51.1875 94.4119 51.0861 94.3252 51.4953C94.2307 51.9453 94.0868 52.384 93.9377 52.9258C93.7097 52.2478 93.4981 51.667 93.3221 51.0757C93.2068 50.689 92.8756 50.6924 92.5964 50.6422C92.2887 50.5919 92.3441 50.9023 92.2956 51.0757C92.0355 51.9739 91.8118 52.8842 91.5326 53.7772C91.3956 54.2177 91.7208 54.1778 91.9375 54.2532C92.1681 54.3321 92.4118 54.4266 92.4993 54.0451C92.6042 53.5882 92.7438 53.1391 92.8852 52.6285C92.9432 52.762 92.9831 52.8383 93.01 52.918C93.1834 53.4382 93.3646 53.9524 93.5302 54.4734C93.649 54.8584 93.9958 54.835 94.2723 54.8731C94.5489 54.9113 94.4917 54.613 94.5377 54.4561C94.7978 53.5561 95.0171 52.6449 95.3006 51.7537C95.4298 51.3219 95.1307 51.341 94.9096 51.2681Z" fill="white"/>
<path d="M115.796 45.7862C115.511 45.7455 115.231 45.6614 114.946 45.6345C114.711 45.6128 114.652 45.5313 114.644 45.2877C114.625 44.6808 114.076 44.1832 113.479 44.1762C113.069 44.165 112.755 44.3704 112.504 44.6583C112.191 45.0163 111.922 45.4126 111.608 45.7698C111.395 46.0134 111.422 46.1643 111.676 46.3559C112.435 46.9298 113.189 47.5133 113.925 48.1159C114.185 48.3239 114.316 48.3023 114.507 48.0413C114.854 47.5688 114.868 47.5801 114.401 47.2177C114.298 47.1379 114.191 47.0633 114.097 46.974C114.025 46.9055 113.847 46.8778 113.947 46.7217C114.029 46.596 114.099 46.4313 114.308 46.4738C114.517 46.5163 114.741 46.5223 114.943 46.596C115.409 46.7694 115.699 46.5882 115.952 46.2024C116.119 45.9518 116.128 45.8331 115.796 45.7862ZM113.195 46.257C113.13 46.2622 112.663 45.8617 112.668 45.8036C112.679 45.651 113.212 45.1403 113.361 45.1403C113.561 45.1802 113.708 45.2799 113.724 45.5001C113.734 45.6345 113.294 46.2484 113.195 46.257Z" fill="white"/>
<path d="M94.2406 17.4382C94.271 17.6116 94.3273 17.7503 94.5432 17.7165C95.3235 17.5812 96.109 17.4642 96.8841 17.3029C97.2934 17.2162 97.0116 16.9076 97.0159 16.696C97.0202 16.4697 96.8971 16.4013 96.6752 16.4446C96.2512 16.527 95.8212 16.5833 95.3972 16.6674C95.177 16.7108 95.1189 16.6102 95.0981 16.4221C95.0799 16.2547 95.0556 16.1247 95.2975 16.0978C95.6556 16.0597 96.0059 15.9582 96.3639 15.9201C96.7515 15.8784 96.6804 15.6348 96.6388 15.3886C96.5971 15.1424 96.5451 14.9404 96.2053 15.034C95.8871 15.1207 95.5498 15.1346 95.229 15.2152C95.0036 15.2724 94.8935 15.2585 94.8467 14.995C94.7955 14.7106 94.9533 14.6872 95.1545 14.6568C95.5108 14.604 95.8654 14.5355 96.2217 14.4834C96.4498 14.4488 96.6249 14.3855 96.533 14.0985C96.4593 13.8679 96.5642 13.5037 96.0882 13.6026C95.4111 13.7439 94.7288 13.8627 94.0438 13.9494C93.7161 13.991 93.671 14.1375 93.7196 14.4098C93.8956 15.4215 94.0681 16.4325 94.2406 17.4382Z" fill="white"/>
<path d="M105.807 51.6818C105.554 51.7842 105.296 51.8731 105.033 51.948C104.816 52.0173 104.659 52.1058 104.789 52.3815C104.892 52.5948 104.864 52.9494 105.276 52.7846C105.351 52.7543 105.432 52.6832 105.506 52.7751C105.579 52.867 105.531 52.9762 105.494 53.0629C105.389 53.3118 105.167 53.4184 104.918 53.4618C104.669 53.5051 104.464 53.3863 104.34 53.1696C104.166 52.8697 104.048 52.5406 103.993 52.1985C103.912 51.6931 104.393 51.2509 104.852 51.472C105.23 51.6541 105.514 51.5084 105.835 51.4148C106.055 51.3506 106.055 51.2197 105.929 51.0602C105.636 50.6908 105.235 50.5738 104.781 50.5547C104.303 50.5531 103.84 50.7257 103.48 51.0402C103.047 51.4286 102.874 51.9211 103.047 52.4838C103.266 53.2199 103.394 54.0444 104.309 54.2871C105.012 54.4718 105.631 54.2542 106.13 53.7565C106.67 53.2155 106.539 52.5852 106.303 51.9428C106.2 51.6688 106.1 51.5526 105.807 51.6818Z" fill="white"/>
<path d="M111.185 50.0435C110.868 50.2915 110.523 50.5039 110.205 50.7519C110.031 50.8871 109.945 50.8447 109.833 50.6817C109.721 50.5187 109.686 50.4216 109.873 50.2993C110.162 50.1094 110.438 49.9014 110.719 49.7002C110.811 49.6343 110.922 49.5806 110.911 49.421C110.838 49.2239 110.712 49.0502 110.548 48.9182C110.387 48.8046 110.262 48.978 110.136 49.0647C109.876 49.245 109.604 49.4115 109.361 49.6144C109.159 49.7826 109.101 49.6291 109.001 49.5095C108.882 49.3699 108.88 49.2832 109.047 49.1739C109.373 48.9615 109.673 48.7118 110.001 48.5055C110.27 48.3373 110.213 48.1743 110.055 47.9801C109.915 47.8067 109.83 47.5466 109.522 47.7807C108.956 48.202 108.376 48.6035 107.797 49.0092C107.615 49.1367 107.607 49.2632 107.735 49.4427C108.333 50.2724 108.923 51.1074 109.516 51.9423C109.623 52.0931 109.728 52.153 109.906 52.0238C110.499 51.5903 111.097 51.164 111.7 50.7449C111.983 50.5481 111.811 50.3843 111.69 50.2065C111.569 50.0288 111.453 49.8329 111.185 50.0435Z" fill="white"/>
<path d="M88.7919 48.6342C88.6705 48.5475 88.5422 48.5882 88.433 48.6732C87.5556 49.3552 86.679 50.0384 85.8034 50.7228C85.6881 50.8095 85.6022 50.9369 85.7687 51.0297C86.0756 51.2031 86.3565 51.6366 86.7649 51.1788C86.7847 51.1486 86.8157 51.1274 86.851 51.1197C86.8864 51.1121 86.9233 51.1187 86.9539 51.1381C87.2799 51.3513 87.6085 51.5603 87.9336 51.7736C88.0203 51.8325 87.9917 51.9244 87.9813 52.0094C87.9353 52.3813 88.1928 52.8001 88.563 52.82C88.9497 52.84 88.7676 52.4316 88.889 52.24C88.9033 52.2147 88.9133 52.1871 88.9185 52.1585C89.1439 51.2352 89.3693 50.3109 89.6121 49.3104C89.515 48.9359 89.0858 48.8578 88.7919 48.6342ZM88.237 50.9508C87.5599 50.5528 87.5599 50.5528 88.1096 50.1141C88.2206 50.0274 88.335 49.9407 88.498 49.8159C88.4566 50.2032 88.369 50.5842 88.237 50.9508Z" fill="white"/>
<path d="M87.673 19.4132C88.1065 20.0149 88.7723 20.1935 89.4781 19.9334C90.2116 19.6681 90.7786 18.9519 90.7491 18.2973C90.7337 18.1404 90.6976 17.9861 90.6416 17.8387C90.6337 17.7958 90.6108 17.7571 90.577 17.7296C90.5431 17.7021 90.5005 17.6876 90.4569 17.6887C90.2055 17.6887 89.7434 18.1387 89.7399 18.4083C89.7356 18.7716 89.5032 18.9537 89.2128 19.0698C88.9379 19.1791 88.6926 19.0698 88.5304 18.8418C88.337 18.5739 88.1648 18.2913 88.0154 17.9965C87.8941 17.7477 87.9166 17.4763 88.1429 17.2829C88.3692 17.0896 88.6492 16.9587 88.9709 17.1347C89.1963 17.2587 89.8041 17.048 89.9332 16.8286C90.0199 16.6882 89.909 16.6093 89.8387 16.5313C89.7219 16.3992 89.5775 16.2943 89.4157 16.2242C89.2539 16.1541 89.0787 16.1204 88.9024 16.1255C87.7423 16.1298 86.8381 17.0229 86.9603 17.9991C87.0297 18.5488 87.3704 18.9823 87.673 19.4132Z" fill="white"/>
<path d="M99.9889 52.3365C99.695 51.5718 99.493 51.4695 98.7066 51.6429C98.6425 51.6497 98.5817 51.6748 98.5314 51.7153C98.4811 51.7557 98.4436 51.8097 98.4231 51.8709C98.0937 52.9252 97.7654 53.9812 97.4382 55.0389C97.4096 55.1317 97.368 55.2409 97.479 55.3138C97.7157 55.4698 98.3373 55.2513 98.4439 54.9765C98.4882 54.8621 98.489 54.7225 98.6789 54.7259C99.0257 54.7329 99.3725 54.7259 99.7193 54.7095C99.8424 54.7043 99.9187 54.7511 99.9404 54.8621C100.007 55.2089 100.215 55.3112 100.502 55.2366C101.089 55.2219 101.092 55.2201 100.899 54.7164C100.596 53.9211 100.293 53.1278 99.9889 52.3365ZM99.0734 53.9032C98.8133 53.9032 98.7751 53.8303 98.8532 53.6092C98.9477 53.3387 99.0266 53.063 99.1367 52.711C99.252 53.0058 99.3369 53.2182 99.4176 53.4315C99.5979 53.9144 99.5936 53.898 99.0734 53.9032Z" fill="white"/>
<path d="M107.607 19.8743C107.81 19.9853 108.003 20.281 108.237 19.8899C108.547 19.3697 108.882 18.8678 109.205 18.3571C109.593 17.7433 109.603 17.725 110.228 18.1178C110.56 18.3276 110.647 18.1013 110.787 17.8993C110.936 17.6826 110.995 17.517 110.7 17.3436C110.007 16.9303 109.326 16.4991 108.658 16.05C108.375 15.861 108.235 15.9113 108.052 16.1922C107.849 16.5017 107.89 16.6664 108.204 16.8329C108.386 16.9291 108.59 17.0176 108.716 17.1979C108.652 17.3011 108.6 17.3878 108.542 17.4728C108.15 18.0935 107.768 18.7212 107.361 19.3325C107.143 19.6689 107.395 19.7582 107.607 19.8743Z" fill="white"/>
<path d="M108.428 38.7498C108.205 37.836 107.985 36.9361 107.762 36.0257C107.751 35.9782 107.727 35.9346 107.693 35.8992C107.66 35.8638 107.617 35.8379 107.57 35.8242C107.523 35.8105 107.474 35.8094 107.426 35.821C107.379 35.8326 107.335 35.8566 107.3 35.8905L105.157 37.9418C105.123 37.974 105.099 38.0145 105.086 38.0591C105.073 38.1037 105.072 38.1509 105.083 38.1961C105.094 38.2412 105.117 38.2826 105.149 38.3162C105.181 38.3498 105.222 38.3743 105.266 38.3874C105.346 38.41 105.424 38.4317 105.504 38.4481C105.677 38.4854 105.66 38.5435 105.579 38.6658C105.13 39.3498 104.539 39.9288 103.845 40.3633L103.828 40.3737C103.23 40.6579 102.598 40.862 101.946 40.9806C101.273 41.1098 100.591 41.1886 99.9064 41.2165C99.8848 41.2172 99.8632 41.2135 99.8431 41.2056C99.823 41.1978 99.8046 41.1859 99.7892 41.1707C99.7738 41.1556 99.7617 41.1374 99.7535 41.1174C99.7453 41.0974 99.7413 41.0759 99.7416 41.0543V31.4844C99.7416 31.4721 99.7441 31.4599 99.7488 31.4486C99.7535 31.4372 99.7604 31.4269 99.7691 31.4182C99.7778 31.4095 99.7881 31.4026 99.7994 31.3979C99.8108 31.3932 99.823 31.3908 99.8353 31.3908C99.922 31.3908 100.028 31.4081 100.282 31.4055C100.781 31.4003 101.301 31.4003 101.802 31.3708C101.965 31.3613 102.057 31.3665 102.161 31.4445C102.372 31.6115 102.638 31.6927 102.907 31.672C103.175 31.6512 103.426 31.5301 103.609 31.3327C103.79 31.1345 103.891 30.8763 103.893 30.608C103.895 30.3396 103.797 30.0801 103.619 29.8796C103.44 29.6787 103.191 29.553 102.924 29.5276C102.656 29.5022 102.388 29.579 102.174 29.7426C102.114 29.7983 102.037 29.8314 101.955 29.8362C101.257 29.8328 100.559 29.8328 99.8621 29.8362C99.8193 29.8417 99.776 29.8302 99.7416 29.8041V28.71C99.7411 28.6726 99.7541 28.6363 99.778 28.6077C99.8275 28.5562 99.8863 28.5147 99.9514 28.4854C101.079 27.9132 101.663 26.9734 101.664 25.7223C101.664 23.743 99.733 22.3029 97.8238 22.8213C96.31 23.2323 95.3269 24.7357 95.6121 26.2694C95.8219 27.3965 96.4852 28.1855 97.5637 28.6034C97.6042 28.618 97.6429 28.6372 97.679 28.6606C97.6986 28.6755 97.7144 28.6948 97.7251 28.7169C97.7358 28.7391 97.7411 28.7634 97.7406 28.788V29.6828C97.7406 29.7032 97.7365 29.7234 97.7287 29.7422C97.7208 29.7611 97.7093 29.7782 97.6948 29.7925C97.6803 29.8069 97.6631 29.8182 97.6441 29.8258C97.6252 29.8335 97.6049 29.8373 97.5845 29.8371C96.8346 29.8284 96.0838 29.8319 95.3303 29.8371C95.2267 29.8366 95.126 29.8025 95.0434 29.74C94.8292 29.5774 94.5613 29.5023 94.2938 29.5296C94.0264 29.557 93.7792 29.6848 93.6024 29.8874C93.4251 30.0865 93.3283 30.3444 93.3308 30.611C93.3334 30.8776 93.4352 31.1337 93.6163 31.3293C93.7974 31.525 94.0449 31.6461 94.3105 31.6692C94.5761 31.6922 94.8408 31.6155 95.0529 31.454C95.1343 31.3902 95.2356 31.357 95.339 31.3604C96.0664 31.3604 96.7947 31.3708 97.5221 31.3604C97.5876 31.3508 97.6543 31.3649 97.7103 31.4003C97.7191 31.4087 97.7261 31.419 97.7308 31.4304C97.7354 31.4417 97.7376 31.4539 97.7371 31.4662V40.9867C97.7371 41.0088 97.7325 41.0307 97.7235 41.051C97.7146 41.0712 97.7016 41.0894 97.6853 41.1044C97.669 41.1194 97.6498 41.1308 97.6289 41.138C97.608 41.1452 97.5858 41.148 97.5637 41.1462C96.6802 41.0716 95.8041 40.9266 94.9437 40.7127C94.4158 40.5855 93.9023 40.4051 93.4108 40.1743C93.4023 40.1706 93.3941 40.1659 93.3865 40.1605C92.6932 39.6738 92.1149 39.041 91.6924 38.3068C91.6805 38.2897 91.6733 38.2697 91.6715 38.2489C91.6697 38.2282 91.6734 38.2073 91.6821 38.1884C91.6909 38.1694 91.7045 38.1531 91.7215 38.1411C91.7385 38.129 91.7583 38.1216 91.7791 38.1195L92.0089 38.0727C92.0545 38.0625 92.0966 38.0404 92.131 38.0088C92.1654 37.9771 92.1909 37.937 92.205 37.8924C92.219 37.8478 92.2211 37.8003 92.211 37.7547C92.201 37.709 92.1791 37.6668 92.1476 37.6323L90.1309 35.4344C90.1002 35.3995 90.0606 35.3735 90.0164 35.3591C89.9721 35.3447 89.9248 35.3424 89.8794 35.3525C89.8339 35.3626 89.792 35.3847 89.7581 35.4165C89.7241 35.4483 89.6992 35.4886 89.6862 35.5333C89.3879 36.4774 89.0975 37.3999 88.8027 38.3354C88.7872 38.3842 88.7849 38.4363 88.7959 38.4863C88.807 38.5362 88.8311 38.5824 88.8658 38.6201C88.9005 38.6578 88.9445 38.6856 88.9934 38.7008C89.0423 38.7159 89.0944 38.7179 89.1443 38.7065L89.3004 38.671C89.3963 38.649 89.4969 38.6596 89.5862 38.701C89.6755 38.7424 89.7485 38.8124 89.7937 38.8998C90.9537 41.154 92.6981 42.7849 95.0061 43.8157C95.9078 44.2189 96.265 44.3359 97.0435 44.4547C97.0764 44.4597 97.1069 44.4752 97.1302 44.4989L98.3154 45.6737C98.3949 45.7511 98.5014 45.7944 98.6124 45.7944C98.7233 45.7944 98.8298 45.7511 98.9093 45.6737L100.061 44.5466C100.087 44.5211 100.121 44.5052 100.158 44.5015C101.311 44.3932 101.825 44.1079 103.066 43.54C104.986 42.6618 106.511 41.1332 107.493 39.264C107.579 39.0975 107.656 39.0776 107.803 39.127C107.859 39.1461 107.917 39.1643 107.976 39.1816C108.037 39.2006 108.102 39.2029 108.164 39.1883C108.226 39.1738 108.283 39.1428 108.329 39.0988C108.376 39.0547 108.409 38.9991 108.426 38.9378C108.444 38.8764 108.444 38.8115 108.428 38.7498ZM98.5356 27.3202C98.3329 27.3131 98.1335 27.2658 97.9491 27.1812C97.7646 27.0966 97.5988 26.9763 97.4611 26.8273C97.3234 26.6782 97.2166 26.5034 97.1469 26.3128C97.0772 26.1223 97.0459 25.9198 97.0548 25.7171C97.0964 24.8102 97.8507 24.1409 98.7021 24.2059C99.5986 24.2753 100.216 24.9958 100.171 25.8264C100.122 26.7298 99.3818 27.3835 98.5356 27.3202Z" fill="white"/>
<path d="M0.419654 46.1158C0.697558 46.5996 1.10064 46.9996 1.58655 47.2737L25.4578 61.0558L25.4585 61.0551C25.9395 61.3376 26.4871 61.4865 27.0449 61.4865C27.6027 61.4865 28.1503 61.3376 28.6313 61.0551L52.5033 47.273C52.9882 46.9979 53.3909 46.5982 53.6696 46.1154C53.9484 45.6325 54.0932 45.084 54.0889 44.5264V16.9623L54.0882 16.9616C54.0924 16.4038 53.9475 15.8551 53.6686 15.3721C53.3897 14.8891 52.9869 14.4894 52.5018 14.2142L28.6298 0.432175V0.431432C28.1493 0.148948 27.602 0 27.0445 0C26.4871 0 25.9398 0.148948 25.4592 0.431432V0.432175L1.58803 14.2142C1.10267 14.4892 0.699613 14.8889 0.420567 15.3719C0.141522 15.8549 -0.00337019 16.4037 0.000886722 16.9616L0.000143756 16.9623V44.5264C-0.00521653 45.0842 0.139417 45.6331 0.418912 46.1158" fill="#009639"/>
<path d="M19.3977 41.24C19.3977 42.0543 19.0743 42.8351 18.4986 43.4108C17.9228 43.9866 17.142 44.31 16.3278 44.31C15.5136 44.31 14.7327 43.9866 14.157 43.4108C13.5813 42.8351 13.2578 42.0543 13.2578 41.24L13.2586 41.2408L13.2615 20.1668C13.2615 18.5342 14.7041 17.184 16.7473 17.184C17.5388 17.1739 18.3229 17.336 19.0455 17.6591C19.7681 17.9822 20.4118 18.4585 20.932 19.0551L21.8597 20.1654L34.685 35.5137V20.2526H34.6835C34.6848 19.4392 35.0089 18.6597 35.5845 18.0851C36.1601 17.5104 36.9401 17.1877 37.7535 17.1877C38.5668 17.1877 39.3469 17.5104 39.9224 18.0851C40.498 18.6597 40.8221 19.4392 40.8234 20.2526H40.8227L40.8197 41.325C40.8197 42.9576 39.3764 44.3078 37.3339 44.3078C36.5424 44.3182 35.7582 44.1562 35.0356 43.8331C34.3129 43.51 33.6693 43.0335 33.1493 42.4367L19.3963 25.9782V41.2408L19.3977 41.24Z" fill="white"/>
<path d="M51.2085 55.7752H51.6007V54.9015H51.911C52.0601 54.8885 52.2101 54.9135 52.3469 54.9743C52.4232 55.0331 52.4826 55.1112 52.519 55.2004C52.5554 55.2897 52.5674 55.387 52.554 55.4825V55.6616L52.5628 55.7284C52.5658 55.7375 52.5678 55.7469 52.5688 55.7564C52.5708 55.7672 52.5716 55.7704 52.5776 55.7752H52.9411L52.9279 55.7504C52.9134 55.7144 52.9074 55.6755 52.9103 55.6368C52.9051 55.5741 52.9051 55.5205 52.9051 55.4709V55.3054C52.8996 55.1805 52.8573 55.06 52.7835 54.9591C52.737 54.8985 52.6788 54.8481 52.6123 54.8107C52.5457 54.7733 52.4723 54.7498 52.3964 54.7415C52.5094 54.7262 52.6187 54.6907 52.7191 54.6368C52.7912 54.5894 52.8492 54.5237 52.8873 54.4463C52.9254 54.369 52.9422 54.2829 52.9359 54.1969C52.948 54.0783 52.9211 53.959 52.8591 53.8572C52.7972 53.7553 52.7037 53.6765 52.5928 53.6327C52.3965 53.5697 52.1905 53.5427 51.9846 53.5531H51.2085L51.2085 55.7752ZM52.3241 54.5772C52.2039 54.6168 52.0774 54.6337 51.951 54.6268H51.6007V53.8179H51.935C52.0969 53.8076 52.2588 53.8374 52.4064 53.9046C52.4589 53.9395 52.5005 53.9883 52.5266 54.0456C52.5527 54.103 52.5622 54.1665 52.554 54.2289C52.5594 54.3042 52.5398 54.3792 52.4982 54.4421C52.4566 54.5051 52.3954 54.5526 52.3241 54.5772H52.3241ZM53.4633 53.2417C53.2757 53.0508 53.0512 52.9002 52.8035 52.7989C52.5558 52.6977 52.2901 52.6479 52.0226 52.6527C51.4851 52.6527 50.9697 52.8662 50.5896 53.2462C50.2096 53.6262 49.9961 54.1417 49.9961 54.6792C49.9961 55.2166 50.2096 55.7321 50.5896 56.1121C50.9697 56.4922 51.4851 56.7057 52.0226 56.7057C52.4242 56.7064 52.817 56.5879 53.1513 56.3653C53.4856 56.1427 53.7464 55.826 53.9006 55.4551C54.0548 55.0843 54.0956 54.676 54.0178 54.282C53.9399 53.888 53.7469 53.526 53.4633 53.2416V53.2417ZM53.2573 53.4428C53.4227 53.6019 53.5534 53.7936 53.6409 54.0058C53.7285 54.218 53.771 54.4461 53.766 54.6756C53.7682 55.0214 53.6674 55.36 53.4764 55.6483C53.2854 55.9367 53.0129 56.1616 52.6937 56.2945C52.3744 56.4274 52.0228 56.4622 51.6836 56.3945C51.3445 56.3268 51.0332 56.1596 50.7894 55.9143C50.6265 55.7522 50.4977 55.559 50.4108 55.3462C50.3238 55.1334 50.2804 54.9054 50.2832 54.6756C50.2824 54.213 50.4651 53.7691 50.7912 53.441C51.1172 53.1129 51.5601 52.9275 52.0226 52.9254C52.253 52.9213 52.4818 52.9651 52.6944 53.0542C52.907 53.1433 53.0987 53.2756 53.2574 53.4428" fill="#999999"/>
<path d="M145.295 16.9046C147.974 16.9046 150.655 16.9301 153.336 16.9046C153.572 16.8718 153.813 16.9197 154.018 17.0404C154.224 17.1612 154.382 17.3477 154.469 17.5699C157.583 23.711 160.723 29.8238 163.812 35.9734C164.477 37.2871 164.984 38.6801 165.562 40.0363C165.628 40.2163 165.731 40.3803 165.865 40.5176C165.349 32.6636 165.669 24.8237 165.567 16.9555H172.499V50.5376C172.303 50.5376 172.094 50.5715 171.884 50.5715C169.404 50.5715 166.924 50.5715 164.443 50.5715C164.288 50.59 164.131 50.5575 163.996 50.4788C163.86 50.4002 163.754 50.2797 163.693 50.1355C161.018 44.9401 158.266 39.7815 155.669 34.5634C154.395 31.9982 153.404 29.2943 152.272 26.6556C152.206 26.4654 152.102 26.2909 151.966 26.1431C152.6 34.2548 152.275 42.3693 152.368 50.4923C152.246 50.5259 152.122 50.5496 151.997 50.563C149.896 50.563 147.795 50.563 145.695 50.563C145.556 50.5541 145.418 50.5352 145.281 50.5064L145.295 16.9046Z" fill="#211F1F"/>
<path d="M186.838 51.6078C185.958 51.4861 185.069 51.3926 184.194 51.2369C181.442 50.7499 178.902 49.759 176.719 47.9668C176.521 47.8026 176.34 47.6185 176.113 47.4005C177.509 45.3733 178.891 43.3772 180.193 41.4888C181.513 42.4089 182.724 43.4027 184.069 44.1587C186.111 45.2912 188.333 45.7442 190.649 45.1072C192.705 44.5409 193.727 42.4712 192.722 40.8432C192.309 40.1856 191.743 39.6369 191.074 39.2435C189.638 38.4281 188.101 37.7996 186.634 37.038C184.885 36.1319 183.064 35.308 181.447 34.2067C175.909 30.4099 176.529 22.6974 181.691 19.2008C183.772 17.7994 186.213 17.0269 188.721 16.9754C192.362 16.8395 195.729 17.6492 198.631 19.9539C198.877 20.1598 199.11 20.3801 199.33 20.6136C199.429 20.7099 199.508 20.8231 199.633 20.9732L195.103 26.3753C194.134 25.2428 193.067 24.3311 191.705 23.8101C190.391 23.2537 188.937 23.1134 187.54 23.4081C186.365 23.6912 185.471 24.3254 185.128 25.5655C184.957 26.0965 184.962 26.6685 185.142 27.1965C185.322 27.7244 185.668 28.1802 186.128 28.4959C187.253 29.282 188.435 29.9832 189.664 30.5939C191.796 31.7264 194.03 32.6551 196.102 33.8782C197.157 34.4641 198.076 35.2681 198.796 36.2367C199.516 37.2053 200.021 38.3163 200.278 39.4955C201.218 43.7934 199.231 47.8818 195.233 49.9374C193.375 50.8707 191.342 51.404 189.265 51.5031C189.094 51.527 188.925 51.5648 188.761 51.6163L186.838 51.6078Z" fill="#211F1F"/>
<path d="M216.597 17.1501V50.6019H209.763V24.7719L205.991 27.2691L203.16 21.6065C204.465 20.7005 205.754 19.803 207.05 18.9083C207.886 18.3421 208.659 17.5323 209.599 17.2492C210.539 16.966 211.657 17.1671 212.696 17.1642L216.597 17.1501Z" fill="#211F1F"/>
<path d="M223.155 50.7423C222.65 50.7506 222.149 50.6582 221.68 50.4706C221.212 50.283 220.785 50.004 220.426 49.6497C220.066 49.2955 219.781 48.8731 219.586 48.4074C219.392 47.9416 219.292 47.4418 219.293 46.937C219.293 44.672 220.966 42.9336 223.169 42.9336C225.482 42.9336 227.155 44.6324 227.15 46.9512C227.141 49.1228 225.443 50.7451 223.155 50.7423Z" fill="#EE1A6E"/>
</svg>
